<svg xmlns="http://www.w3.org/2000/svg" width="972" height="200" fill="none"><path fill="#F8F7F7" d="M200.806 109.658v-.008l-77.472-77.463-32.415 32.415 45.056 45.048-51.814 51.242 32.415 32.416 84.23-83.65Z"/><path fill="#F8F7F7" d="M110.693 122.528 65.637 77.472l45.056-45.057L78.278 0 .806 77.472l45.056 45.056L.806 167.585 33.221 200l77.472-77.472Z"/><path fill="#46BEDB" d="m168.393 128.968 19.31-19.31-64.367-64.367-19.31 19.31 64.367 64.367Z"/><path fill="#1F4899" d="m187.697 109.656-19.31-19.31-70.815 70.815 19.31 19.31 70.815-70.815Z"/><path fill="#F4AE14" d="m97.589 32.414-19.31-19.31L13.912 77.47l19.31 19.31L97.59 32.414Zm0 90.113-19.31-19.31-64.367 64.366 19.31 19.31 64.367-64.366Z"/><path fill="#DD1817" d="m33.219 58.163-19.31 19.31 64.366 64.366 19.31-19.31L33.22 58.163Z"/><path fill="#120C4B" fill-opacity=".6" d="M413.055 125.07a15.948 15.948 0 0 0-5.72-12.976c-3.84-3.176-10.865-6.202-21.073-9.078-10.209-2.877-17.661-6.004-22.357-9.38-6.695-4.79-10.037-11.07-10.026-18.844a22.055 22.055 0 0 1 9.315-18.401c6.21-4.718 14.147-7.077 23.811-7.077a39.49 39.49 0 0 1 17.544 3.767 28.8 28.8 0 0 1 12.028 10.623 27.778 27.778 0 0 1 4.274 15.108h-8.408c0-6.75-2.302-12.175-6.905-16.277s-10.795-6.164-18.574-6.185c-7.544 0-13.553 1.686-18.025 5.058a15.78 15.78 0 0 0-6.701 13.196 14.924 14.924 0 0 0 6.03 12.257c4.021 3.165 10.457 5.957 19.309 8.376 8.852 2.418 15.561 4.943 20.126 7.574a28.687 28.687 0 0 1 10.296 9.316 23.279 23.279 0 0 1 3.456 12.804 22.3 22.3 0 0 1-9.315 18.704c-6.21 4.701-14.398 7.052-24.563 7.052a48.261 48.261 0 0 1-19.145-3.726 29.259 29.259 0 0 1-13.213-10.435 26.967 26.967 0 0 1-4.511-15.386h8.335c0 6.961 2.599 12.453 7.795 16.473 5.197 4.02 12.108 6.03 20.731 6.03 7.681 0 13.848-1.697 18.5-5.091a15.849 15.849 0 0 0 6.986-13.482Zm74.4 14.977c-4.903 7.082-12.696 10.623-23.378 10.623-7.812 0-13.753-2.269-17.822-6.807-4.069-4.537-6.147-11.257-6.235-20.158V76.017h8.074V122.7c0 13.956 5.646 20.937 16.939 20.943 11.739 0 19.169-4.857 22.291-14.57V76.017h8.13v73.321h-7.86l-.139-9.291Zm39.549-64.037.27 12.543a29.153 29.153 0 0 1 10.352-10.337 26.82 26.82 0 0 1 13.622-3.554c7.86 0 13.711 2.212 17.551 6.635 3.841 4.423 5.783 11.064 5.826 19.921v48.113h-8.065V101.12c-.038-6.537-1.424-11.415-4.159-14.634-2.734-3.22-7.092-4.824-13.074-4.813a20.49 20.49 0 0 0-13.31 4.706 27.5 27.5 0 0 0-8.572 12.715v50.204h-8.065V76.01h7.624Zm73.206 73.32V50.67h27.57a42.885 42.885 0 0 1 21.793 5.524 38.198 38.198 0 0 1 15.002 15.82 49.92 49.92 0 0 1 5.393 23.443v9.103a49.886 49.886 0 0 1-5.352 23.443 38.144 38.144 0 0 1-15.109 15.779 44.164 44.164 0 0 1-22.332 5.556l-26.965-.008Zm8.326-91.608v84.564h18.704c10.394 0 18.729-3.448 25.005-10.344 6.275-6.897 9.416-16.223 9.421-27.979v-8.678c0-11.352-3.094-20.441-9.283-27.267-6.188-6.826-14.343-10.26-24.464-10.304l-19.383.008Zm111.808 92.965a31.865 31.865 0 0 1-16.906-4.609 31.42 31.42 0 0 1-11.758-12.837 40.11 40.11 0 0 1-4.2-18.467v-2.909a43.205 43.205 0 0 1 4.085-19.047 32.583 32.583 0 0 1 11.44-13.31 28.134 28.134 0 0 1 15.852-4.846c8.907 0 15.967 3.037 21.18 9.11 5.213 6.075 7.82 14.366 7.82 24.874v4.535h-52.296v1.561c0 8.307 2.383 15.231 7.15 20.771a22.78 22.78 0 0 0 8.038 6.208 22.778 22.778 0 0 0 9.939 2.094 26.405 26.405 0 0 0 11.488-2.378 25.512 25.512 0 0 0 9.046-7.583l5.082 3.857c-5.965 8.651-14.618 12.976-25.96 12.976Zm-1.495-69.12a20.268 20.268 0 0 0-15.411 6.708c-4.178 4.467-6.719 10.475-7.624 18.026h43.978v-.883c-.224-7.043-2.242-12.777-6.055-17.2a18.705 18.705 0 0 0-14.912-6.644l.024-.008Zm69.521 56.585 22.291-62.101h8.343l-27.374 73.312h-6.537l-27.512-73.312h8.334l22.455 62.101Zm90.595-7.443a11.545 11.545 0 0 0-4.846-9.683c-3.225-2.446-8.092-4.353-14.602-5.72a65.983 65.983 0 0 1-15.141-4.739 20.179 20.179 0 0 1-8-6.537 16.273 16.273 0 0 1-2.606-9.357 17.426 17.426 0 0 1 7.248-14.324c4.837-3.775 11.025-5.663 18.565-5.663 8.171 0 14.732 2.021 19.684 6.064a19.456 19.456 0 0 1 7.42 15.82h-8.123a13.068 13.068 0 0 0-5.393-10.697 21.152 21.152 0 0 0-13.58-4.274c-5.328 0-9.61 1.185-12.845 3.555a10.986 10.986 0 0 0-4.838 9.25 9.972 9.972 0 0 0 4.029 8.506c2.685 2.01 7.588 3.851 14.708 5.524 7.12 1.672 12.45 3.456 15.991 5.352a20.672 20.672 0 0 1 7.894 6.848 18.792 18.792 0 0 1-4.903 24.513c-5.001 3.71-11.519 5.562-19.554 5.557-8.536 0-15.46-2.065-20.771-6.194a19.08 19.08 0 0 1-7.959-15.689h8.171a14.111 14.111 0 0 0 5.998 11.08c3.677 2.637 8.544 3.958 14.602 3.963 5.649 0 10.211-1.242 13.687-3.726a11.182 11.182 0 0 0 5.164-9.429Zm-570.134 37.088c-7.583-2.261-13.303-5.943-17.16-11.047-3.857-5.105-5.763-11.879-5.72-20.322V121.45c0-11.887-5.218-17.83-15.656-17.83v-7.044c10.438 0 15.656-5.897 15.656-17.69V63.36c.044-8.27 1.951-14.956 5.72-20.06 3.77-5.105 9.49-8.81 17.16-11.113l1.765 5.352c-11.026 3.524-16.536 12.355-16.531 26.491v14.44c0 11.113-4.156 18.317-12.469 21.613 8.313 3.481 12.469 10.666 12.469 21.556v15.443c.18 13.189 5.758 21.613 16.735 25.274l-1.969 5.442Zm621.834-5.426c10.971-3.66 16.549-12.085 16.735-25.273v-15.174c0-11.44 4.358-18.691 13.074-21.752-8.716-3.073-13.074-10.28-13.074-21.621V64.11c0-14.266-5.511-23.118-16.531-26.556l1.765-5.352c7.719 2.299 13.466 6.036 17.241 11.211 3.776 5.175 5.663 11.963 5.663 20.363v15.117c0 11.794 5.219 17.688 15.656 17.682v7.052c-10.432 0-15.65 5.941-15.656 17.822v14.978c0 8.449-1.907 15.225-5.72 20.33-3.813 5.104-9.533 8.787-17.159 11.047l-1.994-5.434Z"/></svg>